<svg width="50px" height="50px" viewBox="0 0 320 320" xmlns="http://www.w3.org/2000/svg">
<g stroke="rgb(0, 0, 0)" stroke-width="2.2" stroke-linecap="round" stroke-linejoin="round" fill="transparent">
<path d="M160,160 L203,191 L219,242 L176,210 Z M160,160 L143,210 L160,261 L176,210 Z M160,160 L176,109 L160,58 L143,109 Z M160,160 L176,109 L219,77 L203,128 Z M143,109 L90,109 L47,77 L100,77 Z M203,128 L256,128 L299,160 L246,160 Z M203,191 L256,191 L299,160 L246,160 Z M143,210 L90,210 L47,242 L100,242 Z M106,160 L63,128 L47,77 L90,109 Z M106,160 L90,210 L47,242 L63,191 Z " fill="rgb(29, 32, 33)"/>
<path d="M160,160 L203,191 L246,160 L203,128 Z M160,160 L106,160 L90,109 L143,109 Z M160,160 L106,160 L90,210 L143,210 Z M143,109 L160,58 L116,27 L100,77 Z M176,210 L160,261 L203,292 L219,242 Z M203,128 L256,128 L272,77 L219,77 Z M203,191 L256,191 L272,242 L219,242 Z M143,210 L100,242 L116,292 L160,261 Z M176,109 L219,77 L203,27 L160,58 Z M106,160 L63,128 L20,160 L63,191 Z " fill="rgb(69, 133, 136)"/>
</g></svg>
