<?xml version="1.0" encoding="UTF-8" standalone="no"?>
<!DOCTYPE svg PUBLIC "-//W3C//DTD SVG 1.1//EN"
 "http://www.w3.org/Graphics/SVG/1.1/DTD/svg11.dtd">
<!-- Generated by graphviz version 8.0.5 (0)
 -->
<!-- Pages: 1 -->
<svg width="297pt" height="864pt"
 viewBox="0.00 0.00 297.36 864.00" xmlns="http://www.w3.org/2000/svg" xmlns:xlink="http://www.w3.org/1999/xlink">
<g id="graph0" class="graph" transform="scale(1.18081 1.18081) rotate(0) translate(21.6 710.1)">
<polygon fill="white" stroke="none" points="-21.6,21.6 -21.6,-710.1 230.22,-710.1 230.22,21.6 -21.6,21.6"/>
<text text-anchor="middle" x="104.31" y="-671.2" font-family="ProFont" font-size="14.00">Execution of Hooks</text>
<!-- register signal handlers -->
<g id="node1" class="node">
<title>register signal handlers</title>
<polygon fill="none" stroke="black" points="9.12,-624.5 9.12,-660.5 181.88,-660.5 181.88,-624.5 9.12,-624.5"/>
<text text-anchor="middle" x="95.5" y="-638.95" font-family="ProFont" font-size="14.00">register signal handlers</text>
</g>
<!-- grab bindings -->
<g id="node2" class="node">
<title>grab bindings</title>
<polygon fill="none" stroke="black" points="42.5,-569.5 42.5,-605.5 148.5,-605.5 148.5,-569.5 42.5,-569.5"/>
<text text-anchor="middle" x="95.5" y="-583.95" font-family="ProFont" font-size="14.00">grab bindings</text>
</g>
<!-- register signal handlers&#45;&gt;grab bindings -->
<g id="edge1" class="edge">
<title>register signal handlers&#45;&gt;grab bindings</title>
<path fill="none" stroke="black" d="M95.5,-624.73C95.5,-622.02 95.5,-619.16 95.5,-616.28"/>
<polygon fill="black" stroke="black" points="99,-616.34 95.5,-606.34 92,-616.34 99,-616.34"/>
</g>
<!-- startup_hook -->
<g id="node3" class="node">
<title>startup_hook</title>
<polygon fill="lightgrey" stroke="black" points="44,-514.5 44,-550.5 147,-550.5 147,-514.5 44,-514.5"/>
<text text-anchor="middle" x="95.5" y="-528.95" font-family="ProFont" font-size="14.00">startup_hook</text>
</g>
<!-- grab bindings&#45;&gt;startup_hook -->
<g id="edge2" class="edge">
<title>grab bindings&#45;&gt;startup_hook</title>
<path fill="none" stroke="black" d="M95.5,-569.73C95.5,-567.02 95.5,-564.16 95.5,-561.28"/>
<polygon fill="black" stroke="black" points="99,-561.34 95.5,-551.34 92,-561.34 99,-561.34"/>
</g>
<!-- manage existing clients -->
<g id="node4" class="node">
<title>manage existing clients</title>
<polygon fill="none" stroke="black" points="9.5,-459.5 9.5,-495.5 181.5,-495.5 181.5,-459.5 9.5,-459.5"/>
<text text-anchor="middle" x="95.5" y="-473.95" font-family="ProFont" font-size="14.00">manage existing clients</text>
</g>
<!-- startup_hook&#45;&gt;manage existing clients -->
<g id="edge3" class="edge">
<title>startup_hook&#45;&gt;manage existing clients</title>
<path fill="none" stroke="black" d="M95.5,-514.73C95.5,-512.02 95.5,-509.16 95.5,-506.28"/>
<polygon fill="black" stroke="black" points="99,-506.34 95.5,-496.34 92,-506.34 99,-506.34"/>
</g>
<!-- handle next event -->
<g id="node5" class="node">
<title>handle next event</title>
<polygon fill="none" stroke="black" points="27.88,-404.5 27.88,-440.5 163.12,-440.5 163.12,-404.5 27.88,-404.5"/>
<text text-anchor="middle" x="95.5" y="-418.95" font-family="ProFont" font-size="14.00">handle next event</text>
</g>
<!-- manage existing clients&#45;&gt;handle next event -->
<g id="edge4" class="edge">
<title>manage existing clients&#45;&gt;handle next event</title>
<path fill="none" stroke="black" d="M95.5,-459.73C95.5,-457.02 95.5,-454.16 95.5,-451.28"/>
<polygon fill="black" stroke="black" points="99,-451.34 95.5,-441.34 92,-451.34 99,-451.34"/>
</g>
<!-- event_hook -->
<g id="node6" class="node">
<title>event_hook</title>
<polygon fill="lightgrey" stroke="black" points="49.62,-349.5 49.62,-385.5 141.38,-385.5 141.38,-349.5 49.62,-349.5"/>
<text text-anchor="middle" x="95.5" y="-363.95" font-family="ProFont" font-size="14.00">event_hook</text>
</g>
<!-- handle next event&#45;&gt;event_hook -->
<g id="edge5" class="edge">
<title>handle next event&#45;&gt;event_hook</title>
<path fill="none" stroke="black" d="M95.5,-404.73C95.5,-402.02 95.5,-399.16 95.5,-396.28"/>
<polygon fill="black" stroke="black" points="99,-396.34 95.5,-386.34 92,-396.34 99,-396.34"/>
</g>
<!-- event_hook_outcome -->
<g id="node7" class="node">
<title>event_hook_outcome</title>
<polygon fill="none" stroke="black" points="0,-275.5 0,-330.5 171,-330.5 171,-275.5 0,-275.5"/>
<text text-anchor="middle" x="21.12" y="-299.45" font-family="ProFont" font-size="14.00">skip</text>
<polyline fill="none" stroke="black" points="42.25,-275.5 42.25,-330.5"/>
<text text-anchor="middle" x="106.62" y="-313.2" font-family="ProFont" font-size="14.00">default handlers</text>
<polyline fill="none" stroke="black" points="42.25,-303 171,-303"/>
<text text-anchor="middle" x="93" y="-285.7" font-family="ProFont" font-size="14.00">map_request</text>
<polyline fill="none" stroke="black" points="143.75,-275.5 143.75,-303"/>
<text text-anchor="middle" x="157.38" y="-285.7" font-family="ProFont" font-size="14.00">...</text>
</g>
<!-- event_hook&#45;&gt;event_hook_outcome -->
<g id="edge6" class="edge">
<title>event_hook&#45;&gt;event_hook_outcome</title>
<path fill="none" stroke="black" d="M92.82,-349.75C92.39,-347.06 91.93,-344.19 91.46,-341.25"/>
<polygon fill="black" stroke="black" points="94.77,-340.78 89.73,-331.46 87.86,-341.88 94.77,-340.78"/>
</g>
<!-- event_hook_outcome&#45;&gt;handle next event -->
<g id="edge7" class="edge">
<title>event_hook_outcome:f0&#45;&gt;handle next event</title>
<path fill="none" stroke="black" d="M21.5,-331C21.5,-356.86 24.54,-365.65 40.5,-386 44.05,-390.53 48.35,-394.65 52.96,-398.36"/>
<polygon fill="black" stroke="black" points="50.35,-401.52 60.5,-404.57 54.47,-395.86 50.35,-401.52"/>
</g>
<!-- manage_hook -->
<g id="node8" class="node">
<title>manage_hook</title>
<polygon fill="lightgrey" stroke="black" points="23.38,-220.5 23.38,-256.5 131.62,-256.5 131.62,-220.5 23.38,-220.5"/>
<text text-anchor="middle" x="77.5" y="-234.95" font-family="ProFont" font-size="14.00">manage_hook</text>
</g>
<!-- event_hook_outcome&#45;&gt;manage_hook -->
<g id="edge8" class="edge">
<title>event_hook_outcome:f1&#45;&gt;manage_hook</title>
<path fill="none" stroke="black" d="M93.5,-275C93.5,-272.06 93.04,-269.09 92.27,-266.19"/>
<polygon fill="black" stroke="black" points="95.28,-265.25 88.44,-257.16 88.74,-267.75 95.28,-265.25"/>
</g>
<!-- refresh -->
<g id="node9" class="node">
<title>refresh</title>
<polygon fill="none" stroke="black" points="83.88,-165.5 83.88,-201.5 147.12,-201.5 147.12,-165.5 83.88,-165.5"/>
<text text-anchor="middle" x="115.5" y="-179.95" font-family="ProFont" font-size="14.00">refresh</text>
</g>
<!-- event_hook_outcome&#45;&gt;refresh -->
<g id="edge10" class="edge">
<title>event_hook_outcome:f2&#45;&gt;refresh</title>
<path fill="none" stroke="black" d="M157.5,-275C157.5,-251.62 145.82,-227.73 134.78,-210.37"/>
<polygon fill="black" stroke="black" points="137.27,-208.8 128.79,-202.44 131.45,-212.7 137.27,-208.8"/>
</g>
<!-- manage_hook&#45;&gt;refresh -->
<g id="edge9" class="edge">
<title>manage_hook&#45;&gt;refresh</title>
<path fill="none" stroke="black" d="M89.52,-220.73C91.95,-217.35 94.55,-213.72 97.14,-210.11"/>
<polygon fill="black" stroke="black" points="100.44,-212.51 103.42,-202.34 94.75,-208.43 100.44,-212.51"/>
</g>
<!-- layout_hook -->
<g id="node10" class="node">
<title>layout_hook</title>
<polygon fill="lightgrey" stroke="black" points="67.38,-110.5 67.38,-146.5 163.62,-146.5 163.62,-110.5 67.38,-110.5"/>
<text text-anchor="middle" x="115.5" y="-124.95" font-family="ProFont" font-size="14.00">layout_hook</text>
</g>
<!-- refresh&#45;&gt;layout_hook -->
<g id="edge11" class="edge">
<title>refresh&#45;&gt;layout_hook</title>
<path fill="none" stroke="black" d="M115.5,-165.73C115.5,-163.02 115.5,-160.16 115.5,-157.28"/>
<polygon fill="black" stroke="black" points="119,-157.34 115.5,-147.34 112,-157.34 119,-157.34"/>
</g>
<!-- update X state -->
<g id="node11" class="node">
<title>update X state</title>
<polygon fill="none" stroke="black" points="59.88,-55.5 59.88,-91.5 171.12,-91.5 171.12,-55.5 59.88,-55.5"/>
<text text-anchor="middle" x="115.5" y="-69.95" font-family="ProFont" font-size="14.00">update X state</text>
</g>
<!-- layout_hook&#45;&gt;update X state -->
<g id="edge12" class="edge">
<title>layout_hook&#45;&gt;update X state</title>
<path fill="none" stroke="black" d="M115.5,-110.73C115.5,-108.02 115.5,-105.16 115.5,-102.28"/>
<polygon fill="black" stroke="black" points="119,-102.34 115.5,-92.34 112,-102.34 119,-102.34"/>
</g>
<!-- refresh_hook -->
<g id="node12" class="node">
<title>refresh_hook</title>
<polygon fill="lightgrey" stroke="black" points="106.38,-0.5 106.38,-36.5 208.62,-36.5 208.62,-0.5 106.38,-0.5"/>
<text text-anchor="middle" x="157.5" y="-14.95" font-family="ProFont" font-size="14.00">refresh_hook</text>
</g>
<!-- update X state&#45;&gt;refresh_hook -->
<g id="edge13" class="edge">
<title>update X state&#45;&gt;refresh_hook</title>
<path fill="none" stroke="black" d="M128.79,-55.73C131.55,-52.25 134.51,-48.51 137.45,-44.8"/>
<polygon fill="black" stroke="black" points="140.69,-47.35 144.15,-37.34 135.2,-43.01 140.69,-47.35"/>
</g>
<!-- refresh_hook&#45;&gt;handle next event -->
<g id="edge14" class="edge">
<title>refresh_hook&#45;&gt;handle next event</title>
<path fill="none" stroke="black" d="M169.89,-36.21C173.71,-41.95 177.65,-48.55 180.5,-55 193.95,-85.47 199.5,-94.19 199.5,-127.5 199.5,-304 199.5,-304 199.5,-304 199.5,-344.74 164.02,-377.97 134.5,-398.57"/>
<polygon fill="black" stroke="black" points="132.94,-396.08 126.58,-404.55 136.84,-401.89 132.94,-396.08"/>
</g>
</g>
</svg>
