<?xml version="1.0" encoding="UTF-8" standalone="no"?>
<!DOCTYPE svg PUBLIC "-//W3C//DTD SVG 1.1//EN"
 "http://www.w3.org/Graphics/SVG/1.1/DTD/svg11.dtd">
<!-- Generated by graphviz version 8.0.5 (0)
 -->
<!-- Pages: 1 -->
<svg width="864pt" height="513pt"
 viewBox="0.00 0.00 864.00 513.04" xmlns="http://www.w3.org/2000/svg" xmlns:xlink="http://www.w3.org/1999/xlink">
<g id="graph0" class="graph" transform="scale(1.36828 1.36828) rotate(0) translate(21.6 353.35)">
<polygon fill="white" stroke="none" points="-21.6,21.6 -21.6,-353.35 609.85,-353.35 609.85,21.6 -21.6,21.6"/>
<text text-anchor="middle" x="294.12" y="-314.45" font-family="ProFont" font-size="14.00">Penrose pure State</text>
<!-- state -->
<g id="node1" class="node">
<title>state</title>
<polygon fill="none" stroke="black" points="0,-150.75 0,-260.75 88,-260.75 88,-150.75 0,-150.75"/>
<text text-anchor="middle" x="44" y="-243.45" font-family="ProFont" font-size="14.00">client_set</text>
<polyline fill="none" stroke="black" points="0,-233.25 88,-233.25"/>
<text text-anchor="middle" x="44" y="-215.95" font-family="ProFont" font-size="14.00">config</text>
<polyline fill="none" stroke="black" points="0,-205.75 88,-205.75"/>
<text text-anchor="middle" x="44" y="-188.45" font-family="ProFont" font-size="14.00">extensions</text>
<polyline fill="none" stroke="black" points="0,-178.25 88,-178.25"/>
<text text-anchor="middle" x="44" y="-160.95" font-family="ProFont" font-size="14.00">...</text>
</g>
<!-- client_set -->
<g id="node2" class="node">
<title>client_set</title>
<polygon fill="none" stroke="black" points="106,-150.75 106,-260.75 251.75,-260.75 251.75,-150.75 106,-150.75"/>
<text text-anchor="middle" x="178.88" y="-243.45" font-family="ProFont" font-size="14.00">screens</text>
<polyline fill="none" stroke="black" points="106,-233.25 251.75,-233.25"/>
<text text-anchor="middle" x="178.88" y="-215.95" font-family="ProFont" font-size="14.00">hidden_workspaces</text>
<polyline fill="none" stroke="black" points="106,-205.75 251.75,-205.75"/>
<text text-anchor="middle" x="178.88" y="-188.45" font-family="ProFont" font-size="14.00">floating_clients</text>
<polyline fill="none" stroke="black" points="106,-178.25 251.75,-178.25"/>
<text text-anchor="middle" x="178.88" y="-160.95" font-family="ProFont" font-size="14.00">...</text>
</g>
<!-- state&#45;&gt;client_set -->
<g id="edge1" class="edge">
<title>state:f0&#45;&gt;client_set:f0</title>
<path fill="none" stroke="black" d="M88,-246.75C91,-246.75 93.16,-246.75 95.1,-246.75"/>
<polygon fill="black" stroke="black" points="95,-250.25 105,-246.75 95,-243.25 95,-250.25"/>
</g>
<!-- screens -->
<g id="node3" class="node">
<title>screens</title>
<polygon fill="none" stroke="black" points="269.75,-205.5 269.75,-288 323.75,-288 323.75,-205.5 269.75,-205.5"/>
<text text-anchor="middle" x="296.75" y="-270.7" font-family="ProFont" font-size="14.00">up</text>
<polyline fill="none" stroke="black" points="269.75,-260.5 323.75,-260.5"/>
<text text-anchor="middle" x="296.75" y="-243.2" font-family="ProFont" font-size="14.00">focus</text>
<polyline fill="none" stroke="black" points="269.75,-233 323.75,-233"/>
<text text-anchor="middle" x="296.75" y="-215.7" font-family="ProFont" font-size="14.00">down</text>
</g>
<!-- client_set&#45;&gt;screens -->
<g id="edge2" class="edge">
<title>client_set:f0&#45;&gt;screens:f1</title>
<path fill="none" stroke="black" d="M251.75,-246.75C254.75,-246.75 256.91,-246.75 258.85,-246.75"/>
<polygon fill="black" stroke="black" points="258.75,-250.25 268.75,-246.75 258.75,-243.25 258.75,-250.25"/>
</g>
<!-- screen -->
<g id="node4" class="node">
<title>screen</title>
<polygon fill="none" stroke="black" points="341.75,-177.5 341.75,-260 434.25,-260 434.25,-177.5 341.75,-177.5"/>
<text text-anchor="middle" x="388" y="-242.7" font-family="ProFont" font-size="14.00">index</text>
<polyline fill="none" stroke="black" points="341.75,-232.5 434.25,-232.5"/>
<text text-anchor="middle" x="388" y="-215.2" font-family="ProFont" font-size="14.00">dimensions</text>
<polyline fill="none" stroke="black" points="341.75,-205 434.25,-205"/>
<text text-anchor="middle" x="388" y="-187.7" font-family="ProFont" font-size="14.00">workspace</text>
</g>
<!-- screens&#45;&gt;screen -->
<g id="edge3" class="edge">
<title>screens:f1&#45;&gt;screen:f0</title>
<path fill="none" stroke="black" d="M323.75,-246.75C326.75,-246.75 328.91,-246.75 330.85,-246.75"/>
<polygon fill="black" stroke="black" points="330.75,-250.25 340.75,-246.75 330.75,-243.25 330.75,-250.25"/>
</g>
<!-- rect -->
<g id="node5" class="node">
<title>rect</title>
<polygon fill="none" stroke="black" points="457.25,-193.75 457.25,-303.75 511.25,-303.75 511.25,-193.75 457.25,-193.75"/>
<text text-anchor="middle" x="484.25" y="-286.45" font-family="ProFont" font-size="14.00">x</text>
<polyline fill="none" stroke="black" points="457.25,-276.25 511.25,-276.25"/>
<text text-anchor="middle" x="484.25" y="-258.95" font-family="ProFont" font-size="14.00">y</text>
<polyline fill="none" stroke="black" points="457.25,-248.75 511.25,-248.75"/>
<text text-anchor="middle" x="484.25" y="-231.45" font-family="ProFont" font-size="14.00">w</text>
<polyline fill="none" stroke="black" points="457.25,-221.25 511.25,-221.25"/>
<text text-anchor="middle" x="484.25" y="-203.95" font-family="ProFont" font-size="14.00">h</text>
</g>
<!-- screen&#45;&gt;rect -->
<g id="edge4" class="edge">
<title>screen:f1&#45;&gt;rect:f0</title>
<path fill="none" stroke="black" d="M434.25,-218.75C462.38,-218.75 434.6,-270.24 446.13,-285.52"/>
<polygon fill="black" stroke="black" points="444.67,-289.12 455.25,-289.75 447.37,-282.66 444.67,-289.12"/>
</g>
<!-- workspace -->
<g id="node6" class="node">
<title>workspace</title>
<polygon fill="none" stroke="black" points="452.25,-64.75 452.25,-174.75 516.25,-174.75 516.25,-64.75 452.25,-64.75"/>
<text text-anchor="middle" x="484.25" y="-157.45" font-family="ProFont" font-size="14.00">id</text>
<polyline fill="none" stroke="black" points="452.25,-147.25 516.25,-147.25"/>
<text text-anchor="middle" x="484.25" y="-129.95" font-family="ProFont" font-size="14.00">tag</text>
<polyline fill="none" stroke="black" points="452.25,-119.75 516.25,-119.75"/>
<text text-anchor="middle" x="484.25" y="-102.45" font-family="ProFont" font-size="14.00">layouts</text>
<polyline fill="none" stroke="black" points="452.25,-92.25 516.25,-92.25"/>
<text text-anchor="middle" x="484.25" y="-74.95" font-family="ProFont" font-size="14.00">clients</text>
</g>
<!-- screen&#45;&gt;workspace -->
<g id="edge5" class="edge">
<title>screen:f2&#45;&gt;workspace</title>
<path fill="none" stroke="black" d="M434.25,-190.75C442.38,-190.75 449.27,-187.55 455.08,-182.52"/>
<polygon fill="black" stroke="black" points="457.14,-185.37 461.34,-175.64 451.99,-180.62 457.14,-185.37"/>
</g>
<!-- layouts -->
<g id="node7" class="node">
<title>layouts</title>
<polygon fill="none" stroke="black" points="534.25,-102.5 534.25,-185 588.25,-185 588.25,-102.5 534.25,-102.5"/>
<text text-anchor="middle" x="561.25" y="-167.7" font-family="ProFont" font-size="14.00">up</text>
<polyline fill="none" stroke="black" points="534.25,-157.5 588.25,-157.5"/>
<text text-anchor="middle" x="561.25" y="-140.2" font-family="ProFont" font-size="14.00">focus</text>
<polyline fill="none" stroke="black" points="534.25,-130 588.25,-130"/>
<text text-anchor="middle" x="561.25" y="-112.7" font-family="ProFont" font-size="14.00">down</text>
</g>
<!-- workspace&#45;&gt;layouts -->
<g id="edge6" class="edge">
<title>workspace:f2&#45;&gt;layouts:f1</title>
<path fill="none" stroke="black" d="M516.25,-105.75C529.83,-105.75 523.31,-125.81 525.9,-136.78"/>
<polygon fill="black" stroke="black" points="523.33,-140.03 533.25,-143.75 527.82,-134.65 523.33,-140.03"/>
</g>
<!-- clients -->
<g id="node8" class="node">
<title>clients</title>
<polygon fill="none" stroke="black" points="534.25,-0.5 534.25,-83 588.25,-83 588.25,-0.5 534.25,-0.5"/>
<text text-anchor="middle" x="561.25" y="-65.7" font-family="ProFont" font-size="14.00">up</text>
<polyline fill="none" stroke="black" points="534.25,-55.5 588.25,-55.5"/>
<text text-anchor="middle" x="561.25" y="-38.2" font-family="ProFont" font-size="14.00">focus</text>
<polyline fill="none" stroke="black" points="534.25,-28 588.25,-28"/>
<text text-anchor="middle" x="561.25" y="-10.7" font-family="ProFont" font-size="14.00">down</text>
</g>
<!-- workspace&#45;&gt;clients -->
<g id="edge7" class="edge">
<title>workspace:f3&#45;&gt;clients:f1</title>
<path fill="none" stroke="black" d="M516.25,-78.75C529.39,-78.75 523.5,-59.64 525.93,-48.88"/>
<polygon fill="black" stroke="black" points="527.94,-50.92 533.25,-41.75 523.38,-45.6 527.94,-50.92"/>
</g>
</g>
</svg>
